<?xml version="1.0" encoding="utf-8"?>
<!-- Generator: Adobe Illustrator 15.0.0, SVG Export Plug-In  -->
<!DOCTYPE svg PUBLIC "-//W3C//DTD SVG 1.1//EN" "http://www.w3.org/Graphics/SVG/1.1/DTD/svg11.dtd" [
	<!ENTITY ns_flows "http://ns.adobe.com/Flows/1.0/">
]>
<svg version="1.1"
	 xmlns="http://www.w3.org/2000/svg" xmlns:xlink="http://www.w3.org/1999/xlink" xmlns:a="http://ns.adobe.com/AdobeSVGViewerExtensions/3.0/"
	 x="0px" y="0px" width="200px" height="157px" viewBox="132.51 320.576 200 157" enable-background="new 132.51 320.576 200 157"
	 xml:space="preserve">
<defs>
</defs>
<rect display="none" fill="#EC008C" width="592" height="761"/>
<g display="none">
	<g display="inline">
		<path fill="#00A79D" d="M331.486,353.082l-5.648,1.631c-0.335,0.098-34.494,9.78-94.537,9.78c-60.032,0-93.792-9.675-94.126-9.777
			l-5.665-1.635v87.838l5.493-1.371c0.393-0.107,39.876-9.82,94.3-9.82c54.35,0,94.313,9.723,94.706,9.822l5.481,1.352
			L331.486,353.082z M322.649,429.731c-7.243-1.519-21.256-4.132-40.029-6.13l-6.569-10.393h6.394l-12.783-21.948l-12.787,21.948
			h5.875l-5.295,8.38c-3.531-0.188-7.153-0.348-10.874-0.461l-7.327-11.589h8.391L230.87,380.73l-16.771,28.809h7.707l-7.356,11.639
			c-3.556,0.123-7.031,0.287-10.404,0.474l-5.336-8.444h6.39l-12.775-21.948l-12.785,21.945h5.871l-6.659,10.541
			c-17.97,1.974-31.38,4.489-38.407,5.974V364.64c12.088,2.806,43.139,8.693,90.951,8.693c47.903,0,79.2-5.904,91.35-8.706v65.099
			h0.005V429.731z M297.482,377.991c-4.883,0-8.842,3.962-8.842,8.848c0,4.887,3.958,8.849,8.842,8.849
			c4.883,0,8.842-3.962,8.842-8.849C306.324,381.953,302.365,377.991,297.482,377.991z"/>
	</g>
</g>
<g>
	<g>
		<path fill="#FFFFFF" d="M182.505,387.797c9.208,0,16.665-7.529,16.665-16.803c0-9.291-7.465-16.809-16.665-16.809
			c-9.179,0-16.665,7.518-16.665,16.809C165.84,380.271,173.326,387.797,182.505,387.797z M258.428,399
			c-22.217,0-29.627,22.417-44.423,22.417c-14.842,0-14.842-5.618-29.636-5.618c-14.825,0-29.639,16.811-29.639,16.811h133.321
			C288.051,432.609,280.657,399,258.428,399z M321.381,342.983v123.235H154.729v11.205H332.49v-134.44H321.381z M310.269,320.576
			H132.51v134.442h177.759V320.576z M299.16,443.814h-155.54V331.781h155.54V443.814z"/>
	</g>
</g>
</svg>
