<?xml version="1.0" encoding="utf-8"?>
<!-- Generator: Adobe Illustrator 15.0.0, SVG Export Plug-In  -->
<!DOCTYPE svg PUBLIC "-//W3C//DTD SVG 1.1//EN" "http://www.w3.org/Graphics/SVG/1.1/DTD/svg11.dtd" [
	<!ENTITY ns_flows "http://ns.adobe.com/Flows/1.0/">
]>
<svg version="1.1"
	 xmlns="http://www.w3.org/2000/svg" xmlns:xlink="http://www.w3.org/1999/xlink" xmlns:a="http://ns.adobe.com/AdobeSVGViewerExtensions/3.0/"
	 x="0px" y="0px" width="200px" height="200px" viewBox="131.012 74.012 200 200" enable-background="new 131.012 74.012 200 200"
	 xml:space="preserve">
<defs>
</defs>
<rect display="none" fill="#EC008C" width="592" height="761"/>
<g display="none">
	<g display="inline">
		<path fill="#00A79D" d="M202.708,93.853l-5.784-13.965l-8.375,3.469l5.78,13.955C197.044,96.012,199.844,94.864,202.708,93.853z
			 M174.201,110.791l-10.698-10.698l-6.41,6.409l10.698,10.698C169.813,114.952,171.952,112.813,174.201,110.791z M146.011,174.001
			c0-1.521,0.044-3.031,0.123-4.532h-15.122v9.064h15.122C146.055,177.032,146.011,175.522,146.011,174.001z M136.888,139.924
			l13.965,5.785c1.011-2.864,2.159-5.665,3.459-8.379l-13.955-5.78L136.888,139.924z M294.212,117.201l10.697-10.698l-6.409-6.409
			l-10.697,10.697C290.051,112.813,292.19,114.952,294.212,117.201z M273.453,83.358l-8.375-3.47l-5.783,13.965
			c2.864,1.011,5.664,2.158,8.378,3.458L273.453,83.358z M235.534,89.133V74.012h-9.065v15.121c1.501-0.08,3.012-0.123,4.533-0.123
			C232.522,89.01,234.032,89.054,235.534,89.133z M325.114,139.924l-3.469-8.374l-13.955,5.78c1.301,2.714,2.448,5.515,3.46,8.379
			L325.114,139.924z M136.888,208.078l3.469,8.375l13.955-5.78c-1.3-2.715-2.448-5.516-3.459-8.378L136.888,208.078z
			 M307.69,210.673l13.955,5.781l3.469-8.375l-13.964-5.784C310.139,205.159,308.991,207.958,307.69,210.673z M287.803,237.212
			l10.697,10.697l6.409-6.409l-10.697-10.697C292.19,233.051,290.051,235.189,287.803,237.212z M315.869,169.47
			c0.08,1.501,0.123,3.011,0.123,4.531c0,1.521-0.043,3.031-0.123,4.533h15.122v-9.064H315.869z M259.294,254.149l5.784,13.965
			l8.375-3.469l-5.78-13.954C264.958,251.991,262.159,253.139,259.294,254.149z M167.791,230.803L157.093,241.5l6.41,6.409
			l10.698-10.697C171.952,235.189,169.813,233.051,167.791,230.803z M188.55,264.646l8.375,3.469l5.784-13.965
			c-2.864-1.011-5.664-2.159-8.378-3.458L188.55,264.646z M226.469,258.869v15.122h9.065v-15.122
			c-1.502,0.08-3.012,0.122-4.532,0.122C229.481,258.991,227.97,258.949,226.469,258.869z M231.002,99.009
			c-41.417,0-74.993,33.575-74.993,74.992s33.575,74.992,74.993,74.992c41.416,0,74.991-33.575,74.991-74.992
			S272.418,99.009,231.002,99.009z M231.002,240.88c-36.877,0-66.878-30.002-66.878-66.879s30.001-66.878,66.878-66.878
			c36.876,0,66.878,30.001,66.878,66.878S267.878,240.88,231.002,240.88z"/>
	</g>
</g>
<g>
	<g>
		<path fill="#FFFFFF" d="M202.708,93.853l-5.784-13.965l-8.375,3.469l5.78,13.955C197.044,96.012,199.844,94.864,202.708,93.853z
			 M174.201,110.791l-10.698-10.698l-6.41,6.409l10.698,10.698C169.813,114.952,171.952,112.813,174.201,110.791z M146.011,174.001
			c0-1.521,0.044-3.031,0.123-4.532h-15.122v9.064h15.122C146.055,177.032,146.011,175.522,146.011,174.001z M136.888,139.924
			l13.965,5.785c1.011-2.864,2.159-5.665,3.459-8.379l-13.955-5.78L136.888,139.924z M294.212,117.201l10.697-10.698l-6.409-6.409
			l-10.697,10.697C290.051,112.813,292.19,114.952,294.212,117.201z M273.453,83.358l-8.375-3.47l-5.783,13.965
			c2.864,1.011,5.664,2.158,8.378,3.458L273.453,83.358z M235.534,89.133V74.012h-9.065v15.121c1.501-0.08,3.012-0.123,4.533-0.123
			C232.522,89.01,234.032,89.054,235.534,89.133z M325.114,139.924l-3.469-8.374l-13.955,5.78c1.301,2.714,2.448,5.515,3.46,8.379
			L325.114,139.924z M136.888,208.078l3.469,8.375l13.955-5.78c-1.3-2.715-2.448-5.516-3.459-8.378L136.888,208.078z
			 M307.69,210.673l13.955,5.781l3.469-8.375l-13.964-5.784C310.139,205.159,308.991,207.958,307.69,210.673z M287.803,237.212
			l10.697,10.697l6.409-6.409l-10.697-10.697C292.19,233.051,290.051,235.189,287.803,237.212z M315.869,169.47
			c0.08,1.501,0.123,3.011,0.123,4.531c0,1.521-0.043,3.031-0.123,4.533h15.122v-9.064H315.869z M259.294,254.149l5.784,13.965
			l8.375-3.469l-5.78-13.954C264.958,251.991,262.159,253.139,259.294,254.149z M167.791,230.803L157.093,241.5l6.41,6.409
			l10.698-10.697C171.952,235.189,169.813,233.051,167.791,230.803z M188.55,264.646l8.375,3.469l5.784-13.965
			c-2.864-1.011-5.664-2.159-8.378-3.458L188.55,264.646z M226.469,258.869v15.122h9.065v-15.122
			c-1.502,0.08-3.012,0.122-4.532,0.122C229.481,258.991,227.97,258.949,226.469,258.869z M231.002,99.009
			c-41.417,0-74.993,33.575-74.993,74.992s33.575,74.992,74.993,74.992c41.416,0,74.991-33.575,74.991-74.992
			S272.418,99.009,231.002,99.009z M231.002,240.88c-36.877,0-66.878-30.002-66.878-66.879s30.001-66.878,66.878-66.878
			c36.876,0,66.878,30.001,66.878,66.878S267.878,240.88,231.002,240.88z"/>
	</g>
</g>
</svg>
